<?xml version="1.0" encoding="utf-8"?>
<!-- Generator: Adobe Illustrator 16.0.0, SVG Export Plug-In . SVG Version: 6.00 Build 0)  -->
<!DOCTYPE svg PUBLIC "-//W3C//DTD SVG 1.1//EN" "http://www.w3.org/Graphics/SVG/1.1/DTD/svg11.dtd">
<svg version="1.1" id="Layer_1" xmlns="http://www.w3.org/2000/svg" xmlns:xlink="http://www.w3.org/1999/xlink" x="0px" y="0px"
	 width="57px" height="57px" viewBox="0 0 57 57" enable-background="new 0 0 57 57" xml:space="preserve">
<g>
	<path fill="#00b3bb" d="M46.5,10.5h-4v-3c0-0.552-0.447-1-1-1s-1,0.448-1,1v3h-24v-3c0-0.552-0.447-1-1-1s-1,0.448-1,1v3h-4
		c-2.209,0-4,1.791-4,4.001V46.5c0,2.209,1.791,4,4,4h36c2.209,0,4-1.791,4-4V14.501C50.5,12.291,48.709,10.5,46.5,10.5 M48.5,46.5
		c0,1.105-0.896,2-2,2h-36c-1.104,0-2-0.895-2-2v-24h40V46.5z M48.5,20.5h-40v-5.999c0-1.105,0.896-2.001,2-2.001h4v3
		c0,0.553,0.447,1,1,1s1-0.447,1-1v-3h24v3c0,0.553,0.447,1,1,1s1-0.447,1-1v-3h4c1.104,0,2,0.896,2,2.001V20.5z M35.542,43.474
		h1.87V27.408h-1.43c-0.104,0.604-0.294,1.102-0.572,1.496c-0.279,0.392-0.619,0.702-1.023,0.928
		c-0.403,0.227-0.854,0.382-1.352,0.464c-0.5,0.084-1.014,0.125-1.541,0.125v1.541h4.048V43.474z M26.014,41.219
		c-0.309,0.265-0.668,0.469-1.078,0.611c-0.41,0.145-0.844,0.216-1.298,0.216c-1.071,0-1.885-0.329-2.442-0.986
		c-0.557-0.656-0.851-1.507-0.88-2.549h-1.87c-0.014,0.831,0.1,1.571,0.342,2.221c0.242,0.649,0.59,1.197,1.045,1.643
		c0.453,0.446,1.004,0.781,1.65,1.008c0.645,0.227,1.363,0.34,2.155,0.34c0.733,0,1.427-0.102,2.079-0.306s1.221-0.51,1.705-0.918
		s0.869-0.917,1.154-1.528c0.287-0.613,0.43-1.318,0.43-2.12c0-0.967-0.23-1.805-0.693-2.516c-0.462-0.709-1.17-1.17-2.123-1.382
		v-0.045c0.616-0.287,1.129-0.71,1.54-1.269c0.411-0.559,0.616-1.2,0.616-1.926c0-0.74-0.121-1.383-0.363-1.926
		c-0.242-0.544-0.576-0.989-1-1.336c-0.426-0.348-0.929-0.609-1.508-0.783c-0.58-0.174-1.207-0.26-1.881-0.26
		c-0.777,0-1.463,0.127-2.057,0.385c-0.594,0.257-1.09,0.612-1.485,1.065s-0.7,0.998-0.913,1.633
		c-0.213,0.633-0.334,1.336-0.363,2.106h1.87c0-0.468,0.058-0.914,0.177-1.336c0.117-0.424,0.297-0.794,0.539-1.111
		c0.241-0.318,0.549-0.571,0.924-0.759c0.373-0.19,0.81-0.284,1.309-0.284c0.792,0,1.452,0.216,1.98,0.646
		c0.527,0.431,0.791,1.076,0.791,1.937c0,0.424-0.08,0.801-0.241,1.133c-0.162,0.333-0.378,0.609-0.649,0.828
		c-0.271,0.218-0.587,0.384-0.945,0.499c-0.36,0.113-0.738,0.17-1.134,0.17h-0.616c-0.059,0-0.125-0.008-0.197-0.024v1.632
		c0.352-0.045,0.726-0.068,1.121-0.068c0.47,0,0.906,0.064,1.31,0.192c0.403,0.129,0.751,0.325,1.045,0.59s0.528,0.589,0.704,0.974
		c0.176,0.385,0.264,0.828,0.264,1.326c0,0.483-0.092,0.918-0.274,1.302C26.567,40.629,26.322,40.954,26.014,41.219"/>
</g>
</svg>
