<?xml version="1.0" encoding="utf-8"?>
<!-- Generator: Adobe Illustrator 16.0.0, SVG Export Plug-In . SVG Version: 6.00 Build 0)  -->
<!DOCTYPE svg PUBLIC "-//W3C//DTD SVG 1.1//EN" "http://www.w3.org/Graphics/SVG/1.1/DTD/svg11.dtd">
<svg version="1.1" id="Layer_1" xmlns="http://www.w3.org/2000/svg" xmlns:xlink="http://www.w3.org/1999/xlink" x="0px" y="0px"
	 width="57px" height="57px" viewBox="0 0 57 57" enable-background="new 0 0 57 57" xml:space="preserve">
<g>
	<path fill="#00b3bb" d="M28.5,25.5c-1.656,0-3,1.344-3,3c0,1.657,1.344,3,3,3s3-1.343,3-3C31.5,26.844,30.156,25.5,28.5,25.5
		 M28.5,18.501c-5.523,0-10,4.477-10,9.999c0,5.523,4.477,10,10,10s10-4.477,10-10C38.5,22.978,34.023,18.501,28.5,18.501
		 M28.5,36.5c-4.418,0-8-3.581-8-8c0-4.418,3.582-8,8-8s8,3.582,8,8C36.5,32.919,32.918,36.5,28.5,36.5 M28.5,14.5
		c-12.15,0-22,10-22,14s9.85,14,22,14s22-10,22-14S40.65,14.5,28.5,14.5 M28.5,40.5c-11.045,0-20-8.571-20-12
		c0-3.429,8.955-12,20-12c11.046,0,20,8.571,20,12C48.5,31.929,39.546,40.5,28.5,40.5"/>
</g>
</svg>
